<?xml version="1.0" encoding="utf-8"?>
<!-- Generator: Adobe Adobe Illustrator 24.2.0, SVG Export Plug-In . SVG Version: 6.00 Build 0)  -->
<svg version="1.1" xmlns="http://www.w3.org/2000/svg" xmlns:xlink="http://www.w3.org/1999/xlink" x="0px" y="0px"
	 viewBox="0 0 470 502.5" style="enable-background:new 0 0 470 502.5;" xml:space="preserve">
<style type="text/css">
	.st0{fill:#F0EDEB;}
	.st1{fill:#E3DEDA;}
	.st2{fill:#FFFFFF;}
	.st3{fill:#3F3D56;}
	.st4{fill:#2F2E41;}
	.st5{fill:#FF6584;}
	.st6{fill:#EA4A4E;}
	.st7{opacity:0.15;enable-background:new    ;}
	.st8{opacity:0.15;}
	.st9{clip-path:url(#SVGID_2_);}
	.st10{opacity:0.1;enable-background:new    ;}
	.st11{fill:none;stroke:#535461;stroke-miterlimit:10;}
	.st12{fill:#A1A1AA;}
	.st13{fill:none;stroke:#535461;stroke-width:2;stroke-miterlimit:10;}
	.st14{fill:#FFD037;}
	.st15{opacity:0.2;fill:#FFFFFF;enable-background:new    ;}
	.st16{fill:#A8A8A8;}
	.st17{opacity:0.2;enable-background:new    ;}
	.st18{fill:none;stroke:#EA4A4E;stroke-width:4;stroke-miterlimit:10;}
	.st19{fill:none;stroke:#E3DEDA;stroke-width:4;stroke-miterlimit:10;}
</style>
<g id="Layer_4_xA0_Image_1_">
</g>
<g id="Without_shadows_xA0_Image_1_">
</g>
<g id="With_shadows_xA0_Image_1_">
</g>
<g id="Layer_9">
</g>
<g id="Layer_7">
</g>
<g id="Layer_8">
	<g>
		<path class="st1" d="M33.55,220.28C45.3,125.82,103.84,32.74,193.93,2c-35.53,97.23-35.52,203.89,0.02,301.11
			c13.84,37.44,33.14,77.65,20.12,115.39c-8.1,23.48-27.92,41.45-50.08,52.68c-22.16,11.23-46.74,16.59-71.02,21.83l-4.78,3.95
			C49.64,409.94,21.8,314.74,33.55,220.28z"/>
		<path class="st2" d="M194.82,3.79c-52.46,58.78-85.07,132.6-93.19,210.97c-2.05,16.84-1.43,33.9,1.84,50.55
			c3.7,16.11,11.65,30.94,23.03,42.94c10.38,11.4,22.32,21.87,29.74,35.59c7.48,14.33,8.49,31.16,2.77,46.28
			c-6.56,18.81-19.48,34.13-32.64,48.68c-14.61,16.16-30.04,32.7-36.25,54.12c-0.75,2.6-4.74,1.28-3.98-1.32
			c10.8-37.26,46.98-58.43,64.23-91.99c8.05-15.66,11.43-33.84,3.88-50.37c-6.6-14.46-18.9-25.26-29.51-36.71
			c-11.27-11.55-19.53-25.67-24.08-41.15c-4.1-16.43-5.38-33.43-3.77-50.29c3.01-38,11.97-75.3,26.56-110.52
			c16.43-40.29,39.63-77.47,68.6-109.94C193.84-1.37,196.6,1.79,194.82,3.79L194.82,3.79z"/>
		<path class="st2" d="M102.76,189.37c-26.77-6.5-44.9-31.44-42.81-58.91c0.21-2.69,4.41-2.49,4.19,0.21
			c-1.99,25.59,14.96,48.81,39.93,54.72C106.7,186.01,105.37,189.99,102.76,189.37L102.76,189.37z"/>
		<path class="st2" d="M120.47,303.16c23.41-13.98,40.7-36.27,48.41-62.43c0.76-2.59,4.74-1.27,3.98,1.32
			c-8.07,27.21-26.11,50.37-50.5,64.86C120.03,308.29,118.16,304.53,120.47,303.16L120.47,303.16z"/>
		<path class="st2" d="M143.77,74.26c9.67,4.6,21.01,4.02,30.17-1.53c2.31-1.41,4.18,2.35,1.89,3.75
			c-10.14,6.09-22.64,6.75-33.37,1.77c-1.07-0.39-1.66-1.55-1.33-2.65C141.49,74.5,142.67,73.91,143.77,74.26L143.77,74.26z"/>
		<path class="st1" d="M468.53,170.72c-1.42,0.92-2.83,1.84-4.25,2.8c-18.97,12.48-36.9,26.47-53.61,41.85
			c-1.31,1.17-2.62,2.37-3.9,3.58c-39.85,37.48-72.4,82.04-95.99,131.4c-9.37,19.65-17.23,39.99-23.51,60.83
			c-8.68,28.79-15.79,60.69-32.97,84.24c-1.76,2.48-3.68,4.84-5.74,7.08H93.38c-0.35-0.18-0.71-0.32-1.06-0.5l-6.2,0.28
			c0.25-1.1,0.53-2.23,0.78-3.33c0.14-0.64,0.32-1.27,0.46-1.91c0.11-0.42,0.21-0.85,0.28-1.24c0.03-0.14,0.07-0.28,0.11-0.39
			c0.07-0.39,0.18-0.74,0.25-1.1c1.56-6.34,3.16-12.68,4.82-19.01c0-0.04,0-0.04,0.03-0.07c12.71-48.26,29.57-95.88,53.11-139.44
			c0.71-1.31,1.42-2.66,2.2-3.97c10.72-19.57,23.03-38.24,36.79-55.8c7.57-9.6,15.62-18.8,24.11-27.58
			c22-22.65,47.43-41.69,75.35-56.44c55.66-29.39,120.1-40.65,179.59-22.7C465.52,169.77,467.01,170.23,468.53,170.72z"/>
		<path class="st2" d="M468.18,172.69c-77.28,15.35-147.76,54.66-201.43,112.34c-11.77,12.21-21.55,26.21-28.97,41.46
			c-6.74,15.1-9.32,31.72-7.47,48.15c1.42,15.35,4.65,30.89,2.32,46.33c-2.66,15.94-11.99,29.99-25.65,38.62
			c-16.56,11.07-36.1,15.53-55.37,19.22c-21.39,4.1-43.68,8.03-61.53,21.39c-2.16,1.62-4.55-1.83-2.39-3.45
			c31.06-23.25,72.69-18.37,106.67-34.78c15.86-7.66,29.5-20.14,33.43-37.88c3.43-15.52,0.12-31.54-1.46-47.08
			c-2.04-16-0.14-32.26,5.55-47.35c6.62-15.59,15.84-29.93,27.26-42.42c25.28-28.53,54.89-52.92,87.75-72.25
			c37.38-22.28,78.29-37.99,120.96-46.48C470.5,167.99,470.8,172.17,468.18,172.69L468.18,172.69z"/>
		<path class="st2" d="M282.94,265.44c-17.46-21.31-16.92-52.14,1.29-72.82c1.79-2.02,5.01,0.67,3.22,2.69
			c-17,19.23-17.45,47.98-1.06,67.74C288.11,265.14,284.65,267.51,282.94,265.44z"/>
		<path class="st2" d="M228.57,366.96c27.11,2.93,54.33-4.46,76.24-20.7c2.17-1.61,4.56,1.84,2.39,3.45
			c-22.83,16.86-51.17,24.5-79.38,21.38C225.13,370.79,225.9,366.66,228.57,366.96L228.57,366.96z"/>
		<path class="st2" d="M384.99,198.23c4.96,9.49,14.35,15.86,25.01,16.94c2.69,0.26,1.92,4.39-0.75,4.13
			c-11.76-1.25-22.14-8.24-27.71-18.68c-0.62-0.96-0.39-2.24,0.53-2.92C383.02,197.04,384.32,197.28,384.99,198.23L384.99,198.23z"
			/>
	</g>
</g>
<g id="Sun">
</g>
<g id="Layer_5">
</g>
<g id="Layer_4">
</g>
</svg>
