<?xml version="1.0" encoding="utf-8"?>
<!-- Generator: Adobe Adobe Illustrator 24.2.0, SVG Export Plug-In . SVG Version: 6.00 Build 0)  -->
<svg version="1.1" xmlns="http://www.w3.org/2000/svg" xmlns:xlink="http://www.w3.org/1999/xlink" x="0px" y="0px"
	 viewBox="0 0 1670 2050" style="enable-background:new 0 0 1670 2050;" xml:space="preserve">
<style type="text/css">
	.st0{fill:#F0EDEB;}
	.st1{fill:#E3DEDA;}
	.st2{fill:#FFFFFF;}
	.st3{fill:#3F3D56;}
	.st4{fill:#2F2E41;}
	.st5{fill:#FF6584;}
	.st6{fill:#EA4A4E;}
	.st7{opacity:0.15;enable-background:new    ;}
	.st8{opacity:0.15;}
	.st9{clip-path:url(#SVGID_2_);}
	.st10{opacity:0.1;enable-background:new    ;}
	.st11{fill:none;stroke:#535461;stroke-miterlimit:10;}
	.st12{fill:#A1A1AA;}
	.st13{fill:none;stroke:#535461;stroke-width:2;stroke-miterlimit:10;}
	.st14{fill:#FFD037;}
	.st15{opacity:0.2;fill:#FFFFFF;enable-background:new    ;}
	.st16{fill:#A8A8A8;}
	.st17{opacity:0.2;enable-background:new    ;}
	.st18{fill:none;stroke:#EA4A4E;stroke-width:4;stroke-miterlimit:10;}
	.st19{fill:none;stroke:#E3DEDA;stroke-width:4;stroke-miterlimit:10;}
</style>
<g id="Layer_4_xA0_Image_1_">
</g>
<g id="Without_shadows_xA0_Image_1_">
</g>
<g id="With_shadows_xA0_Image_1_">
</g>
<g id="Layer_9">
</g>
<g id="Layer_7">
	<g>
		<path class="st3" d="M704.68,2050H39.87l23.32-75.55h0c144.51-52.31,63.34-164.76,200.81-233.49
			c336.23-168.12,466.4-669.79,417.17-868.1l220.34-9.32C901.49,861.56,1205.78,1725.7,704.68,2050z"/>
		<polygon class="st3" points="885.94,1641.74 1080.28,1494.2 1175.01,1588.92 858.41,1805.58 		"/>
		<path class="st6" d="M1272.23,1692.89c-41.01,36.06-102.07,37.2-144.39,2.7l-0.43-0.36l-0.01-0.56
			c-0.24-9.26-1.69-18.44-4.29-27.33c-0.13,6.4-1.06,12.75-2.78,18.91l-0.56,2.07l-1.49-1.54c-1.29-1.33-2.54-2.68-3.71-4.01
			c-6.9-7.83-12.67-16.57-17.16-25.99c-20.37-42.8-51.04-81.02-91.15-113.61c-6.87-5.59-13.27-11.75-19.12-18.4
			c-57.48-65.39-51.06-165,14.33-222.48c51.01-44.83,124.99-51.96,183.62-17.69l0.99,0.58l-0.51,1.02
			c-3.74,7.77-8.69,14.9-14.65,21.13c8.2-4.43,15.78-9.91,22.56-16.3l0.72-0.68l0.81,0.56c10.62,7.35,20.3,15.96,28.83,25.66
			l0.92,1.05c13.16,15.06,32.11,23.8,52.11,24.05c61.69,1.04,110.85,51.89,109.81,113.57c-0.1,5.8-0.65,11.59-1.64,17.3l-0.13,0.74
			l-0.72,0.22c-15.11,4.6-27.68,6.18-39.04,4.87c11.03,4.8,22.78,7.75,34.77,8.71l1.55,0.12l-0.49,1.48
			c-6.25,18.76-17.37,35.52-32.22,48.58l-0.42,0.37c-0.15,0.13-0.3,0.26-0.45,0.39c-22.36,19.25-36.02,46.7-37.9,76.14
			C1308.5,1644.43,1294.89,1672.8,1272.23,1692.89z"/>
		<path class="st7" d="M1292.57,1656.98c-0.2,4.02-0.62,8.03-1.26,12.01c10.89-16.72,17.15-36.02,18.16-55.95
			c0.15-3.05,0.47-6.09,0.9-9.11C1299.79,1619.7,1293.64,1638.02,1292.57,1656.98z"/>
		<path class="st7" d="M1327.73,1521.19c8.87,3.84,18.22,6.49,27.79,7.86c3.69-3.89,7.09-8.04,10.18-12.42
			C1351.07,1520.97,1338.81,1522.47,1327.73,1521.19z"/>
		<path class="st7" d="M1368.68,1484.5c0.99,9.66,0.72,19.4-0.8,28.99c5.3-8.06,9.53-16.78,12.57-25.93l0.49-1.48l-1.55-0.12
			C1375.81,1485.65,1372.23,1485.16,1368.68,1484.5z"/>
		<path class="st7" d="M1358.34,1378.46c-20.8-23.59-50.55-37.35-82-37.92c-20-0.25-38.95-8.99-52.11-24.05l-0.92-1.05
			c-8.53-9.7-18.21-18.31-28.83-25.66l-0.81-0.56l-0.72,0.68c-6.78,6.39-14.37,11.87-22.56,16.3c5.96-6.23,10.91-13.36,14.65-21.13
			l0.51-1.02l-0.98-0.58c-75.08-43.94-171.57-18.7-215.52,56.38c-8.3,14.17-14.32,29.56-17.87,45.6
			c43.05-75.62,139.25-102.02,214.87-58.97c0.54,0.31,1.08,0.62,1.62,0.93l0.98,0.58l-0.51,1.02c-3.74,7.77-8.69,14.9-14.65,21.13
			c8.2-4.43,15.78-9.91,22.56-16.3l0.72-0.68l0.81,0.56c10.62,7.35,20.3,15.96,28.83,25.66l0.92,1.05
			c13.16,15.06,32.11,23.8,52.11,24.05c53.32,0.9,98.56,39.35,108.06,91.83c5.47-0.98,10.87-2.29,16.17-3.93l0.72-0.22l0.13-0.74
			C1390.39,1438.07,1380.76,1403.85,1358.34,1378.46z"/>
		<path class="st6" d="M1593.55,918.44c-0.02,175.83-127.11,325.89-300.53,354.85l-1.78,0.29l-1.37-1.15
			c-22.89-19.09-48.17-35.14-75.19-47.73c15.18,13.92,28.56,29.69,39.82,46.94l3.83,5.76l-6.9,0.33
			c-5.96,0.29-11.88,0.43-17.59,0.43c-33.59,0.03-67.02-4.61-99.33-13.77c-146.79-41.76-304.42-48.9-468.51-21.23
			c-28.14,4.73-56.62,7.11-85.15,7.1c-279.78,0-507.41-227.67-507.41-507.51C73.12,523.92,213.36,329.6,421.15,260.93l3.49-1.16
			l1.38,3.4c10.83,25.58,17.55,52.7,19.94,80.37c6.73-29.24,9.61-59.24,8.57-89.22l-0.11-3.17l3.08-0.77
			c40.34-10.05,81.77-15.14,123.34-15.13l4.5,0.02c64.4,0.19,125.83-27.03,168.96-74.85c133.69-146.93,361.18-157.67,508.11-23.98
			c13.82,12.57,26.64,26.2,38.34,40.77l1.52,1.88l-1,2.2c-21.02,46.32-43.91,80.07-71.25,104.75c35.07-16.45,67.18-38.6,95.01-65.55
			l3.59-3.48l2.52,4.33c32.07,55,48.96,117.53,48.93,181.2l0,1.81c0,0.64,0,1.29,0,1.93c0,97.39,37.66,189.7,103.5,253.55
			C1553.52,727.72,1593.17,820.95,1593.55,918.44z"/>
		<g class="st8">
			<path d="M1153.77,68.34c-12.4,20.58-27.66,39.3-45.32,55.6c25.29-11.87,49.06-26.73,70.82-44.26
				C1170.92,75.57,1162.42,71.79,1153.77,68.34z"/>
			<path d="M1361.99,497.71c19.56,18.99,36.92,40.12,51.72,63.01c-22.29-48.44-33.77-101.14-33.65-154.46c0-0.64,0-1.29,0-1.93
				l0-1.81c0.02-63.67-16.86-126.2-48.93-181.2l-2.52-4.33l-3.59,3.48c-19.83,19.17-41.85,35.94-65.61,49.96
				C1265.54,358.02,1302.11,439.64,1361.99,497.71z"/>
			<path d="M1258.5,240.43l0,1.81c0,0.64,0,1.29,0,1.93c0,3.53,0.06,7.05,0.16,10.57c16.94-22.79,31.24-47.43,42.61-73.45l1-2.2
				l-1.52-1.88c-18.98-23.62-40.84-44.76-65.08-62.94C1250.77,154.62,1258.5,197.35,1258.5,240.43z"/>
			<path d="M1483.57,659.81c-17.31-16.83-32.68-35.54-45.85-55.78c84.33,179.66,7.05,393.67-172.61,478
				c-29.74,13.96-61.25,23.77-93.66,29.17l-1.78,0.29l-1.37-1.15c-22.9-19.09-48.17-35.14-75.19-47.73
				c15.18,13.92,28.56,29.69,39.82,46.94l3.83,5.76l-6.9,0.33c-5.96,0.29-11.88,0.43-17.59,0.43c-33.59,0.03-67.02-4.61-99.33-13.77
				c-146.79-41.76-304.42-48.9-468.51-21.23c-28.14,4.73-56.62,7.11-85.15,7.1c-124.36,0.1-244.39-45.68-337.11-128.56
				c81.45,171.66,256.43,290.65,458.69,290.65c28.53,0,57.01-2.37,85.15-7.1c164.09-27.68,321.72-20.54,468.51,21.23
				c32.31,9.17,65.75,13.8,99.33,13.77c5.71,0,11.64-0.14,17.59-0.43l6.9-0.33l-3.83-5.76c-11.26-17.25-24.64-33.02-39.82-46.94
				c27.02,12.59,52.3,28.64,75.19,47.73l1.37,1.15l1.78-0.29c195.87-32.59,328.24-217.79,295.66-413.66
				C1576.01,783.47,1539.15,713.4,1483.57,659.81z"/>
		</g>
	</g>
</g>
<g id="Layer_8">
</g>
<g id="Sun">
</g>
<g id="Layer_5">
</g>
<g id="Layer_4">
</g>
</svg>
