<?xml version="1.0" encoding="utf-8"?>
<!-- Generator: Adobe Adobe Illustrator 24.2.0, SVG Export Plug-In . SVG Version: 6.00 Build 0)  -->
<svg version="1.1" id="Layer_1" xmlns="http://www.w3.org/2000/svg" xmlns:xlink="http://www.w3.org/1999/xlink" x="0px" y="0px"
	 viewBox="0 0 1080 1080" style="enable-background:new 0 0 1080 1080;" xml:space="preserve">
<style type="text/css">
	.st0{fill:#FFFFFF;}
	.st1{display:none;}
	.st2{display:inline;}
	.st3{display:inline;fill:#FFFFFF;}
	.st4{clip-path:url(#SVGID_2_);}
	.st5{clip-path:url(#SVGID_4_);}
	.st6{clip-path:url(#SVGID_6_);}
	.st7{clip-path:url(#SVGID_8_);}
	.st8{clip-path:url(#SVGID_10_);}
	.st9{clip-path:url(#SVGID_12_);}
</style>
<g class="st1">
	<path class="st2" d="M86.44,1063.29H58.89V958.07h32.23c8.99,0,16.94,1.26,23.86,3.76c6.91,2.51,12.31,6.27,16.19,11.29
		c3.88,5.02,5.82,11.36,5.82,19.03s-1.94,14.04-5.82,19.1c-3.88,5.07-9.28,8.85-16.19,11.36c-6.91,2.51-14.86,3.76-23.86,3.76h-4.69
		V1063.29z M92.26,978.23h-5.82v27.97h5.82c5.02,0,9.04-1.23,12.07-3.69c3.03-2.46,4.54-5.92,4.54-10.37
		c0-4.45-1.52-7.88-4.54-10.29C101.3,979.44,97.28,978.23,92.26,978.23z"/>
	<path class="st2" d="M208.7,1026.65v-68.59h27.12v68.59c0,12.02-3.72,21.44-11.15,28.26c-7.43,6.82-17.77,10.22-31.03,10.22
		c-13.25,0-23.62-3.41-31.1-10.22c-7.48-6.82-11.22-16.24-11.22-28.26v-68.59h27.55v66.31c0,13.35,4.87,20.02,14.63,20.02
		C203.64,1044.4,208.7,1038.49,208.7,1026.65z"/>
	<path class="st2" d="M281.69,1063.29h-27.55V958.07h32.23c8.99,0,16.94,1.26,23.86,3.76c6.91,2.51,12.31,6.27,16.19,11.29
		c3.88,5.02,5.82,11.36,5.82,19.03s-1.94,14.04-5.82,19.1c-3.88,5.07-9.28,8.85-16.19,11.36c-6.91,2.51-14.86,3.76-23.86,3.76h-4.69
		V1063.29z M287.51,978.23h-5.82v27.97h5.82c5.02,0,9.04-1.23,12.07-3.69c3.03-2.46,4.54-5.92,4.54-10.37
		c0-4.45-1.52-7.88-4.54-10.29C296.55,979.44,292.53,978.23,287.51,978.23z"/>
	<path class="st2" d="M374.98,1063.29h-27.55V958.07h32.23c8.99,0,16.94,1.26,23.86,3.76c6.91,2.51,12.31,6.27,16.19,11.29
		c3.88,5.02,5.82,11.36,5.82,19.03s-1.94,14.04-5.82,19.1c-3.88,5.07-9.28,8.85-16.19,11.36c-6.91,2.51-14.86,3.76-23.86,3.76h-4.69
		V1063.29z M380.8,978.23h-5.82v27.97h5.82c5.02,0,9.04-1.23,12.07-3.69c3.03-2.46,4.54-5.92,4.54-10.37
		c0-4.45-1.52-7.88-4.54-10.29C389.84,979.44,385.82,978.23,380.8,978.23z"/>
	<path class="st2" d="M490.14,1063.29H462.6v-42.46l-34.36-62.76h29.82l18.89,39.19l18.32-39.19h28.83l-33.94,63.19V1063.29z"/>
</g>
<g class="st1">
	<path class="st3" d="M568.59,1063.29V958.07h35.36c8.24,0,15.48,0.99,21.73,2.98c6.25,1.99,11.12,4.95,14.63,8.88
		c3.5,3.93,5.25,8.78,5.25,14.56c0,5.38-1.7,10.17-5.11,14.37c-3.41,4.2-7.81,7.2-13.21,8.99c7.48,1.33,13.3,4.25,17.47,8.76
		c4.16,4.51,6.25,10.13,6.25,16.87c0,6.53-1.9,12.02-5.68,16.47c-3.79,4.45-9.02,7.79-15.69,10.01c-6.67,2.22-14.46,3.34-23.36,3.34
		H568.59z M603.81,978.23h-8.38v21.16h8.52c4.73,0,8.42-0.9,11.08-2.7c2.65-1.8,3.98-4.45,3.98-7.95c0-3.31-1.35-5.89-4.05-7.74
		C612.26,979.16,608.54,978.23,603.81,978.23z M595.43,1043.13h10.65c5.4,0,9.54-1.04,12.42-3.12c2.89-2.08,4.33-5.02,4.33-8.8
		c0-7.76-5.54-11.64-16.61-11.64h-10.79V1043.13z"/>
	<path class="st3" d="M710.59,1065.14c-11.17,0-20.45-2.37-27.83-7.1c-7.38-4.73-12.92-11.29-16.61-19.67s-5.54-18.01-5.54-28.9
		c0-10.41,1.87-19.62,5.61-27.62c3.74-8,9.32-14.27,16.76-18.82c7.43-4.54,16.64-6.82,27.62-6.82c11.08,0,20.33,2.27,27.76,6.82
		c7.43,4.54,13.02,10.82,16.76,18.82c3.74,8,5.61,17.21,5.61,27.62c0,10.89-1.85,20.52-5.54,28.9s-9.23,14.93-16.61,19.67
		C731.18,1062.77,721.86,1065.14,710.59,1065.14z M710.59,1044.69c7,0,12.35-3.17,16.05-9.51c3.69-6.34,5.54-14.91,5.54-25.7
		c0-10.22-1.85-18.25-5.54-24.07c-3.69-5.82-9.04-8.73-16.05-8.73c-6.91,0-12.21,2.91-15.9,8.73c-3.69,5.82-5.54,13.85-5.54,24.07
		c0,10.79,1.85,19.36,5.54,25.7C698.38,1041.52,703.68,1044.69,710.59,1044.69z"/>
	<path class="st3" d="M833.28,1063.29l-20.59-34.93l-21.44,34.93h-29.96l36.07-55.38l-32.66-49.84h31.38l17.47,29.96L832,958.07
		h29.96l-32.94,50.41l35.64,54.81H833.28z"/>
</g>
<g>
	<defs>
		<rect id="SVGID_5_" width="540" height="1080"/>
	</defs>
	<clipPath id="SVGID_2_">
		<use xlink:href="#SVGID_5_"  style="overflow:visible;"/>
	</clipPath>
	<g class="st4">
		<path d="M673.67,576.65c0,1.37-0.02,2.63-0.06,4c0,61.9-48.97,115.19-103.85,130.02c-15.61,5.13-31.99,7.74-48.49,7.74l-69.73,0
			l-32.47,31.36c-4.88,4.73-7.14,10.85-7.14,17.17c0,10.83,5.79,13.24,5.79,28.68c0.06,26.14-21.94,46.74-48.25,46.74
			c-12.5,0-24.88-4.69-34.17-13.79c-9.24-8.88-13.45-20.38-13.45-31.95c0-3.83,0.46-7.67,1.36-11.42c-3.87,0.86-7.83,1.3-11.77,1.3
			c-33.72,0-47.3-28.38-47.3-46.08c0-25.89,21.72-46.73,48.31-46.73c15.17,0,18.37,5.59,29.56,5.59c6.53,0,12.83-2.18,17.71-6.9
			l32.45-31.34l0.03-67.2c0-48.87,22.23-82.86,50.53-110.28c26.5-25.6,61.1-38.4,95.75-38.4s69.42,12.8,95.91,38.4
			C660.79,509.74,673.67,543.19,673.67,576.65z"/>
	</g>
	<g class="st4">
		<path d="M635.64,674.32c-0.97,0.97-1.87,1.85-2.87,2.78c-43.77,43.77-116.08,46.83-165.37,18.51
			c-14.67-7.41-28.09-17.14-39.76-28.81l-49.31-49.31l-45.13-0.79c-6.79-0.11-12.72,2.63-17.19,7.09
			c-7.66,7.66-5.27,13.46-16.18,24.38c-18.44,18.53-48.56,17.54-67.17-1.07c-8.84-8.84-14.28-20.91-14.42-33.91
			c-0.26-12.81,4.89-23.92,13.08-32.11c2.71-2.71,5.75-5.1,9.04-7.12c-3.35-2.13-6.46-4.62-9.25-7.41
			c-23.84-23.84-13.38-53.51-0.86-66.03c18.31-18.31,48.4-17.69,67.2,1.11c10.73,10.73,9.04,16.95,16.95,24.86
			c4.61,4.61,10.61,7.53,17.4,7.64l45.11,0.78l47.53-47.49c34.55-34.55,74.31-42.88,113.71-42.25
			c36.84,0.63,70.36,16.05,94.86,40.55c24.5,24.5,40.04,58.14,40.66,94.97C673.84,617.9,659.29,650.66,635.64,674.32z"/>
	</g>
</g>
<g>
	<defs>
		<rect id="SVGID_7_" x="540" y="0" width="540" height="1080"/>
	</defs>
	<clipPath id="SVGID_4_">
		<use xlink:href="#SVGID_7_"  style="overflow:visible;"/>
	</clipPath>
	<g class="st5">
		<g>
			<g>
				<ellipse cx="758.71" cy="282.8" rx="21.87" ry="23.38"/>
				<path d="M540,0v445.16h21.6l153.36,94.99v327.2c0,25.87-19.55,46.76-43.74,46.76h-43.74c-24.19,0-43.74-20.9-43.74-46.76V698.99
					c-14.21,7.5-28.76,13.63-43.75,18.22V1080h540V0H540z M933.67,329.57c0,64.59-48.93,116.91-109.35,116.91h-94.73l-6.97,44.57
					l-153.09-93.53L601.1,194.9c2.6-16.74,16.13-29.01,31.99-29.01c10.25,0,19.82,5.14,25.97,13.89l23.1,32.88h71.21
					c17.36,0,34.17,7.39,46.47,20.55l24.47,26.22h76.55c18.18,0,32.81,15.71,32.81,35.07V329.57z"/>
			</g>
		</g>
	</g>
</g>
</svg>
